<mxfile host="app.diagrams.net" agent="Mozilla/5.0 (Windows NT 10.0; Win64; x64) AppleWebKit/537.36 (KHTML, like Gecko) Chrome/139.0.0.0 Safari/537.36" version="28.1.1">
  <diagram name="Halaman-1" id="k4534nBwE0KkbKXI_wxj">
    <mxGraphModel dx="1209" dy="765" grid="1" gridSize="10" guides="1" tooltips="1" connect="1" arrows="1" fold="1" page="1" pageScale="1" pageWidth="827" pageHeight="1169" math="0" shadow="0">
      <root>
        <mxCell id="0" />
        <mxCell id="1" parent="0" />
        <mxCell id="UTGtY8Tgd75jo_c63Tw--1" value="Masyarakat" style="shape=umlActor;verticalLabelPosition=bottom;verticalAlign=top;html=1;outlineConnect=0;" vertex="1" parent="1">
          <mxGeometry x="370" y="170" width="64" height="128" as="geometry" />
        </mxCell>
        <mxCell id="UTGtY8Tgd75jo_c63Tw--2" value="" style="endArrow=none;dashed=1;html=1;dashPattern=1 3;strokeWidth=2;rounded=0;" edge="1" parent="1" source="UTGtY8Tgd75jo_c63Tw--12">
          <mxGeometry width="50" height="50" relative="1" as="geometry">
            <mxPoint x="400" y="680" as="sourcePoint" />
            <mxPoint x="400" y="320" as="targetPoint" />
          </mxGeometry>
        </mxCell>
        <mxCell id="UTGtY8Tgd75jo_c63Tw--3" value="User login" style="rounded=0;whiteSpace=wrap;html=1;" vertex="1" parent="1">
          <mxGeometry x="480" y="230" width="120" height="60" as="geometry" />
        </mxCell>
        <mxCell id="UTGtY8Tgd75jo_c63Tw--4" value="Sistem" style="rounded=0;whiteSpace=wrap;html=1;" vertex="1" parent="1">
          <mxGeometry x="680" y="230" width="120" height="60" as="geometry" />
        </mxCell>
        <mxCell id="UTGtY8Tgd75jo_c63Tw--5" value="Database" style="rounded=0;whiteSpace=wrap;html=1;" vertex="1" parent="1">
          <mxGeometry x="880" y="230" width="120" height="60" as="geometry" />
        </mxCell>
        <mxCell id="UTGtY8Tgd75jo_c63Tw--6" value="Dasbord" style="rounded=0;whiteSpace=wrap;html=1;" vertex="1" parent="1">
          <mxGeometry x="1080" y="230" width="120" height="60" as="geometry" />
        </mxCell>
        <mxCell id="UTGtY8Tgd75jo_c63Tw--7" value="" style="endArrow=none;dashed=1;html=1;dashPattern=1 3;strokeWidth=2;rounded=0;" edge="1" parent="1" source="UTGtY8Tgd75jo_c63Tw--22">
          <mxGeometry width="50" height="50" relative="1" as="geometry">
            <mxPoint x="540" y="920" as="sourcePoint" />
            <mxPoint x="539.5" y="320" as="targetPoint" />
          </mxGeometry>
        </mxCell>
        <mxCell id="UTGtY8Tgd75jo_c63Tw--8" value="" style="endArrow=none;dashed=1;html=1;dashPattern=1 3;strokeWidth=2;rounded=0;" edge="1" parent="1" source="UTGtY8Tgd75jo_c63Tw--28">
          <mxGeometry width="50" height="50" relative="1" as="geometry">
            <mxPoint x="740" y="920" as="sourcePoint" />
            <mxPoint x="739.5" y="320" as="targetPoint" />
          </mxGeometry>
        </mxCell>
        <mxCell id="UTGtY8Tgd75jo_c63Tw--9" value="" style="endArrow=none;dashed=1;html=1;dashPattern=1 3;strokeWidth=2;rounded=0;" edge="1" parent="1">
          <mxGeometry width="50" height="50" relative="1" as="geometry">
            <mxPoint x="1140" y="920" as="sourcePoint" />
            <mxPoint x="1139.5" y="320" as="targetPoint" />
          </mxGeometry>
        </mxCell>
        <mxCell id="UTGtY8Tgd75jo_c63Tw--10" value="" style="endArrow=none;dashed=1;html=1;dashPattern=1 3;strokeWidth=2;rounded=0;" edge="1" parent="1" source="UTGtY8Tgd75jo_c63Tw--34">
          <mxGeometry width="50" height="50" relative="1" as="geometry">
            <mxPoint x="940" y="920" as="sourcePoint" />
            <mxPoint x="939.5" y="320" as="targetPoint" />
          </mxGeometry>
        </mxCell>
        <mxCell id="UTGtY8Tgd75jo_c63Tw--15" value="" style="endArrow=none;dashed=1;html=1;dashPattern=1 3;strokeWidth=2;rounded=0;" edge="1" parent="1" source="UTGtY8Tgd75jo_c63Tw--17" target="UTGtY8Tgd75jo_c63Tw--12">
          <mxGeometry width="50" height="50" relative="1" as="geometry">
            <mxPoint x="400" y="910" as="sourcePoint" />
            <mxPoint x="400" y="320" as="targetPoint" />
          </mxGeometry>
        </mxCell>
        <mxCell id="UTGtY8Tgd75jo_c63Tw--24" style="edgeStyle=orthogonalEdgeStyle;rounded=0;orthogonalLoop=1;jettySize=auto;html=1;exitX=1;exitY=0;exitDx=0;exitDy=0;entryX=0;entryY=0;entryDx=0;entryDy=0;" edge="1" parent="1" source="UTGtY8Tgd75jo_c63Tw--12" target="UTGtY8Tgd75jo_c63Tw--22">
          <mxGeometry relative="1" as="geometry">
            <Array as="points">
              <mxPoint x="480" y="400" />
              <mxPoint x="480" y="400" />
            </Array>
          </mxGeometry>
        </mxCell>
        <mxCell id="UTGtY8Tgd75jo_c63Tw--59" value="Isi Email dan&amp;nbsp;&lt;div&gt;passowrd&lt;/div&gt;" style="edgeLabel;html=1;align=center;verticalAlign=middle;resizable=0;points=[];" vertex="1" connectable="0" parent="UTGtY8Tgd75jo_c63Tw--24">
          <mxGeometry x="-0.1202" relative="1" as="geometry">
            <mxPoint as="offset" />
          </mxGeometry>
        </mxCell>
        <mxCell id="UTGtY8Tgd75jo_c63Tw--12" value="" style="rounded=0;whiteSpace=wrap;html=1;" vertex="1" parent="1">
          <mxGeometry x="390" y="400" width="17" height="102" as="geometry" />
        </mxCell>
        <mxCell id="UTGtY8Tgd75jo_c63Tw--18" value="" style="endArrow=none;dashed=1;html=1;dashPattern=1 3;strokeWidth=2;rounded=0;" edge="1" parent="1" source="UTGtY8Tgd75jo_c63Tw--16" target="UTGtY8Tgd75jo_c63Tw--17">
          <mxGeometry width="50" height="50" relative="1" as="geometry">
            <mxPoint x="400" y="910" as="sourcePoint" />
            <mxPoint x="399" y="502" as="targetPoint" />
          </mxGeometry>
        </mxCell>
        <mxCell id="UTGtY8Tgd75jo_c63Tw--17" value="" style="rounded=0;whiteSpace=wrap;html=1;" vertex="1" parent="1">
          <mxGeometry x="390" y="570" width="17" height="102" as="geometry" />
        </mxCell>
        <mxCell id="UTGtY8Tgd75jo_c63Tw--21" value="" style="endArrow=none;dashed=1;html=1;dashPattern=1 3;strokeWidth=2;rounded=0;" edge="1" parent="1" target="UTGtY8Tgd75jo_c63Tw--16">
          <mxGeometry width="50" height="50" relative="1" as="geometry">
            <mxPoint x="400" y="920" as="sourcePoint" />
            <mxPoint x="399" y="672" as="targetPoint" />
          </mxGeometry>
        </mxCell>
        <mxCell id="UTGtY8Tgd75jo_c63Tw--16" value="" style="rounded=0;whiteSpace=wrap;html=1;" vertex="1" parent="1">
          <mxGeometry x="390" y="750" width="17" height="102" as="geometry" />
        </mxCell>
        <mxCell id="UTGtY8Tgd75jo_c63Tw--23" value="" style="endArrow=none;dashed=1;html=1;dashPattern=1 3;strokeWidth=2;rounded=0;" edge="1" parent="1" target="UTGtY8Tgd75jo_c63Tw--22">
          <mxGeometry width="50" height="50" relative="1" as="geometry">
            <mxPoint x="540" y="920" as="sourcePoint" />
            <mxPoint x="539.5" y="320" as="targetPoint" />
          </mxGeometry>
        </mxCell>
        <mxCell id="UTGtY8Tgd75jo_c63Tw--26" style="edgeStyle=orthogonalEdgeStyle;rounded=0;orthogonalLoop=1;jettySize=auto;html=1;exitX=0;exitY=0.5;exitDx=0;exitDy=0;entryX=1;entryY=0;entryDx=0;entryDy=0;" edge="1" parent="1" source="UTGtY8Tgd75jo_c63Tw--22" target="UTGtY8Tgd75jo_c63Tw--17">
          <mxGeometry relative="1" as="geometry">
            <Array as="points">
              <mxPoint x="532" y="570" />
            </Array>
          </mxGeometry>
        </mxCell>
        <mxCell id="UTGtY8Tgd75jo_c63Tw--72" value="Pasan Email dan&lt;div&gt;password salah&lt;/div&gt;" style="edgeLabel;html=1;align=center;verticalAlign=middle;resizable=0;points=[];" vertex="1" connectable="0" parent="UTGtY8Tgd75jo_c63Tw--26">
          <mxGeometry x="0.128" y="-2" relative="1" as="geometry">
            <mxPoint as="offset" />
          </mxGeometry>
        </mxCell>
        <mxCell id="UTGtY8Tgd75jo_c63Tw--27" style="edgeStyle=orthogonalEdgeStyle;rounded=0;orthogonalLoop=1;jettySize=auto;html=1;exitX=0;exitY=1;exitDx=0;exitDy=0;entryX=1;entryY=0;entryDx=0;entryDy=0;" edge="1" parent="1" source="UTGtY8Tgd75jo_c63Tw--22" target="UTGtY8Tgd75jo_c63Tw--16">
          <mxGeometry relative="1" as="geometry">
            <Array as="points">
              <mxPoint x="532" y="750" />
            </Array>
          </mxGeometry>
        </mxCell>
        <mxCell id="UTGtY8Tgd75jo_c63Tw--73" value="Halaman tampil" style="edgeLabel;html=1;align=center;verticalAlign=middle;resizable=0;points=[];" vertex="1" connectable="0" parent="UTGtY8Tgd75jo_c63Tw--27">
          <mxGeometry x="0.034" y="3" relative="1" as="geometry">
            <mxPoint x="-2" y="-4" as="offset" />
          </mxGeometry>
        </mxCell>
        <mxCell id="UTGtY8Tgd75jo_c63Tw--30" style="edgeStyle=orthogonalEdgeStyle;rounded=0;orthogonalLoop=1;jettySize=auto;html=1;exitX=1;exitY=0.25;exitDx=0;exitDy=0;entryX=0;entryY=0;entryDx=0;entryDy=0;" edge="1" parent="1" source="UTGtY8Tgd75jo_c63Tw--22" target="UTGtY8Tgd75jo_c63Tw--28">
          <mxGeometry relative="1" as="geometry">
            <Array as="points">
              <mxPoint x="549" y="420" />
              <mxPoint x="732" y="420" />
            </Array>
          </mxGeometry>
        </mxCell>
        <mxCell id="UTGtY8Tgd75jo_c63Tw--61" value="Email dan password" style="edgeLabel;html=1;align=center;verticalAlign=middle;resizable=0;points=[];" vertex="1" connectable="0" parent="UTGtY8Tgd75jo_c63Tw--30">
          <mxGeometry x="0.2446" y="3" relative="1" as="geometry">
            <mxPoint as="offset" />
          </mxGeometry>
        </mxCell>
        <mxCell id="UTGtY8Tgd75jo_c63Tw--22" value="" style="rounded=0;whiteSpace=wrap;html=1;" vertex="1" parent="1">
          <mxGeometry x="531.5" y="400" width="17" height="360" as="geometry" />
        </mxCell>
        <mxCell id="UTGtY8Tgd75jo_c63Tw--29" value="" style="endArrow=none;dashed=1;html=1;dashPattern=1 3;strokeWidth=2;rounded=0;" edge="1" parent="1" target="UTGtY8Tgd75jo_c63Tw--28">
          <mxGeometry width="50" height="50" relative="1" as="geometry">
            <mxPoint x="740" y="920" as="sourcePoint" />
            <mxPoint x="739.5" y="320" as="targetPoint" />
          </mxGeometry>
        </mxCell>
        <mxCell id="UTGtY8Tgd75jo_c63Tw--32" style="edgeStyle=orthogonalEdgeStyle;rounded=0;orthogonalLoop=1;jettySize=auto;html=1;exitX=0;exitY=0.75;exitDx=0;exitDy=0;entryX=1.001;entryY=0.972;entryDx=0;entryDy=0;entryPerimeter=0;" edge="1" parent="1" source="UTGtY8Tgd75jo_c63Tw--28" target="UTGtY8Tgd75jo_c63Tw--22">
          <mxGeometry relative="1" as="geometry">
            <mxPoint x="550" y="750" as="targetPoint" />
            <Array as="points">
              <mxPoint x="732" y="750" />
              <mxPoint x="550" y="750" />
            </Array>
          </mxGeometry>
        </mxCell>
        <mxCell id="UTGtY8Tgd75jo_c63Tw--71" value="Manampilkan halaman" style="edgeLabel;html=1;align=center;verticalAlign=middle;resizable=0;points=[];" vertex="1" connectable="0" parent="UTGtY8Tgd75jo_c63Tw--32">
          <mxGeometry x="0.3697" y="-3" relative="1" as="geometry">
            <mxPoint x="8" as="offset" />
          </mxGeometry>
        </mxCell>
        <mxCell id="UTGtY8Tgd75jo_c63Tw--40" style="edgeStyle=orthogonalEdgeStyle;rounded=0;orthogonalLoop=1;jettySize=auto;html=1;exitX=1;exitY=0.25;exitDx=0;exitDy=0;entryX=0;entryY=0;entryDx=0;entryDy=0;" edge="1" parent="1" source="UTGtY8Tgd75jo_c63Tw--28" target="UTGtY8Tgd75jo_c63Tw--34">
          <mxGeometry relative="1" as="geometry">
            <mxPoint x="920" y="505" as="targetPoint" />
            <Array as="points">
              <mxPoint x="748" y="502" />
            </Array>
          </mxGeometry>
        </mxCell>
        <mxCell id="UTGtY8Tgd75jo_c63Tw--62" value="Data user" style="edgeLabel;html=1;align=center;verticalAlign=middle;resizable=0;points=[];" vertex="1" connectable="0" parent="UTGtY8Tgd75jo_c63Tw--40">
          <mxGeometry x="0.098" y="-1" relative="1" as="geometry">
            <mxPoint x="-4" y="-4" as="offset" />
          </mxGeometry>
        </mxCell>
        <mxCell id="UTGtY8Tgd75jo_c63Tw--28" value="" style="rounded=0;whiteSpace=wrap;html=1;" vertex="1" parent="1">
          <mxGeometry x="731.5" y="420" width="17" height="340" as="geometry" />
        </mxCell>
        <mxCell id="UTGtY8Tgd75jo_c63Tw--35" value="" style="endArrow=none;dashed=1;html=1;dashPattern=1 3;strokeWidth=2;rounded=0;" edge="1" parent="1" target="UTGtY8Tgd75jo_c63Tw--34">
          <mxGeometry width="50" height="50" relative="1" as="geometry">
            <mxPoint x="940" y="920" as="sourcePoint" />
            <mxPoint x="939.5" y="320" as="targetPoint" />
          </mxGeometry>
        </mxCell>
        <mxCell id="UTGtY8Tgd75jo_c63Tw--46" style="edgeStyle=orthogonalEdgeStyle;rounded=0;orthogonalLoop=1;jettySize=auto;html=1;exitX=1;exitY=0;exitDx=0;exitDy=0;entryX=1;entryY=0.5;entryDx=0;entryDy=0;" edge="1" parent="1" source="UTGtY8Tgd75jo_c63Tw--34" target="UTGtY8Tgd75jo_c63Tw--45">
          <mxGeometry relative="1" as="geometry">
            <Array as="points">
              <mxPoint x="949" y="510" />
              <mxPoint x="1000" y="510" />
              <mxPoint x="1000" y="540" />
            </Array>
          </mxGeometry>
        </mxCell>
        <mxCell id="UTGtY8Tgd75jo_c63Tw--63" value="Validasi data" style="edgeLabel;html=1;align=center;verticalAlign=middle;resizable=0;points=[];" vertex="1" connectable="0" parent="UTGtY8Tgd75jo_c63Tw--46">
          <mxGeometry x="0.0976" y="-1" relative="1" as="geometry">
            <mxPoint as="offset" />
          </mxGeometry>
        </mxCell>
        <mxCell id="UTGtY8Tgd75jo_c63Tw--57" style="edgeStyle=orthogonalEdgeStyle;rounded=0;orthogonalLoop=1;jettySize=auto;html=1;exitX=1;exitY=0.5;exitDx=0;exitDy=0;entryX=0;entryY=0;entryDx=0;entryDy=0;" edge="1" parent="1" source="UTGtY8Tgd75jo_c63Tw--34" target="UTGtY8Tgd75jo_c63Tw--43">
          <mxGeometry relative="1" as="geometry">
            <Array as="points">
              <mxPoint x="949" y="585" />
            </Array>
          </mxGeometry>
        </mxCell>
        <mxCell id="UTGtY8Tgd75jo_c63Tw--64" value="Menampilkan halaman" style="edgeLabel;html=1;align=center;verticalAlign=middle;resizable=0;points=[];" vertex="1" connectable="0" parent="UTGtY8Tgd75jo_c63Tw--57">
          <mxGeometry x="0.2399" y="1" relative="1" as="geometry">
            <mxPoint as="offset" />
          </mxGeometry>
        </mxCell>
        <mxCell id="UTGtY8Tgd75jo_c63Tw--68" style="edgeStyle=orthogonalEdgeStyle;rounded=0;orthogonalLoop=1;jettySize=auto;html=1;exitX=0;exitY=0.25;exitDx=0;exitDy=0;" edge="1" parent="1" source="UTGtY8Tgd75jo_c63Tw--34">
          <mxGeometry relative="1" as="geometry">
            <mxPoint x="750" y="567.0144927536231" as="targetPoint" />
          </mxGeometry>
        </mxCell>
        <mxCell id="UTGtY8Tgd75jo_c63Tw--69" value="Email dan password salah" style="edgeLabel;html=1;align=center;verticalAlign=middle;resizable=0;points=[];" vertex="1" connectable="0" parent="UTGtY8Tgd75jo_c63Tw--68">
          <mxGeometry x="0.2539" relative="1" as="geometry">
            <mxPoint x="20" y="-2" as="offset" />
          </mxGeometry>
        </mxCell>
        <mxCell id="UTGtY8Tgd75jo_c63Tw--34" value="" style="rounded=0;whiteSpace=wrap;html=1;" vertex="1" parent="1">
          <mxGeometry x="931.5" y="502" width="17" height="260" as="geometry" />
        </mxCell>
        <mxCell id="UTGtY8Tgd75jo_c63Tw--43" value="" style="rounded=0;whiteSpace=wrap;html=1;" vertex="1" parent="1">
          <mxGeometry x="1130" y="585" width="17" height="132" as="geometry" />
        </mxCell>
        <mxCell id="UTGtY8Tgd75jo_c63Tw--45" value="" style="rounded=0;whiteSpace=wrap;html=1;" vertex="1" parent="1">
          <mxGeometry x="940" y="520" width="20" height="40" as="geometry" />
        </mxCell>
        <mxCell id="UTGtY8Tgd75jo_c63Tw--53" style="edgeStyle=orthogonalEdgeStyle;rounded=0;orthogonalLoop=1;jettySize=auto;html=1;exitX=0;exitY=0.75;exitDx=0;exitDy=0;entryX=1.088;entryY=0.815;entryDx=0;entryDy=0;entryPerimeter=0;" edge="1" parent="1" source="UTGtY8Tgd75jo_c63Tw--34" target="UTGtY8Tgd75jo_c63Tw--28">
          <mxGeometry relative="1" as="geometry" />
        </mxCell>
        <mxCell id="UTGtY8Tgd75jo_c63Tw--70" value="Manampilkan halaman" style="edgeLabel;html=1;align=center;verticalAlign=middle;resizable=0;points=[];" vertex="1" connectable="0" parent="UTGtY8Tgd75jo_c63Tw--53">
          <mxGeometry x="-0.0428" y="-2" relative="1" as="geometry">
            <mxPoint x="-2" as="offset" />
          </mxGeometry>
        </mxCell>
        <mxCell id="UTGtY8Tgd75jo_c63Tw--54" style="edgeStyle=orthogonalEdgeStyle;rounded=0;orthogonalLoop=1;jettySize=auto;html=1;exitX=0;exitY=0.75;exitDx=0;exitDy=0;entryX=1.038;entryY=0.699;entryDx=0;entryDy=0;entryPerimeter=0;" edge="1" parent="1" source="UTGtY8Tgd75jo_c63Tw--43" target="UTGtY8Tgd75jo_c63Tw--34">
          <mxGeometry relative="1" as="geometry" />
        </mxCell>
        <mxCell id="UTGtY8Tgd75jo_c63Tw--65" value="Menampilkan halaman" style="edgeLabel;html=1;align=center;verticalAlign=middle;resizable=0;points=[];" vertex="1" connectable="0" parent="UTGtY8Tgd75jo_c63Tw--54">
          <mxGeometry x="0.0527" y="-2" relative="1" as="geometry">
            <mxPoint as="offset" />
          </mxGeometry>
        </mxCell>
      </root>
    </mxGraphModel>
  </diagram>
</mxfile>
